<?xml version="1.0" encoding="utf-8"?>
<!-- Generator: Adobe Illustrator 24.0.1, SVG Export Plug-In . SVG Version: 6.00 Build 0)  -->
<svg version="1.1" id="Capa_1" xmlns:svgjs="http://svgjs.com/svgjs"
	 xmlns="http://www.w3.org/2000/svg" xmlns:xlink="http://www.w3.org/1999/xlink" x="0px" y="0px" viewBox="0 0 512 512"
	 style="enable-background:new 0 0 512 512;" xml:space="preserve">
<style type="text/css">
	.st0{fill:#F5F5F5;}
</style>
<g>
	<g>
		<g>
			<path class="st0" d="M16,294.8l146.3,146.3c21.4,21.4,56.1,21.4,77.6,0c21.4-21.4,21.4-56.2,0-77.6L132.4,256l107.5-107.5
				c21.4-21.4,21.4-56.1,0-77.6c-10.7-10.8-24.7-16.1-38.8-16.1c-14,0-28.1,5.3-38.8,16.1L16,217.2C-5.3,238.6-5.3,273.4,16,294.8z"
				/>
		</g>
	</g>
	<g>
		<g>
			<path class="st0" d="M272.1,294.8l146.3,146.3c21.4,21.4,56.1,21.4,77.6,0c21.4-21.4,21.4-56.2,0-77.6L388.4,256l107.5-107.5
				c21.4-21.4,21.4-56.1,0-77.6c-10.7-10.8-24.7-16.1-38.8-16.1s-28.1,5.3-38.8,16.1L272.1,217.2
				C250.7,238.6,250.7,273.4,272.1,294.8z"/>
		</g>
	</g>
</g>
</svg>
