<?xml version="1.0" encoding="utf-8"?>
<!-- Generator: Adobe Illustrator 24.0.1, SVG Export Plug-In . SVG Version: 6.00 Build 0)  -->
<svg version="1.1" id="Capa_1" xmlns:svgjs="http://svgjs.com/svgjs"
	 xmlns="http://www.w3.org/2000/svg" xmlns:xlink="http://www.w3.org/1999/xlink" x="0px" y="0px" viewBox="0 0 512 512"
	 style="enable-background:new 0 0 512 512;" xml:space="preserve">
<style type="text/css">
	.st0{fill:#F5F5F5;}
</style>
<g>
	<g>
		<g>
			<path class="st0" d="M496.1,217.1L349.8,70.8c-21.4-21.4-56.1-21.4-77.6,0c-21.4,21.4-21.4,56.2,0,77.6l107.5,107.5L272.2,363.4
				c-21.4,21.4-21.4,56.1,0,77.6c10.7,10.8,24.7,16.1,38.8,16.1c14,0,28.1-5.3,38.8-16.1l146.3-146.3
				C517.4,273.3,517.4,238.5,496.1,217.1z"/>
		</g>
	</g>
	<g>
		<g>
			<path class="st0" d="M240,217.1L93.7,70.8c-21.4-21.4-56.1-21.4-77.6,0c-21.4,21.4-21.4,56.2,0,77.6l107.6,107.5L16.2,363.4
				c-21.4,21.4-21.4,56.1,0,77.6c10.7,10.8,24.7,16.1,38.8,16.1s28.1-5.3,38.8-16.1L240,294.7C261.4,273.3,261.4,238.5,240,217.1z"
				/>
		</g>
	</g>
</g>
</svg>
