<?xml version="1.0"?>
<svg xmlns="http://www.w3.org/2000/svg" xmlns:xlink="http://www.w3.org/1999/xlink" xmlns:svgjs="http://svgjs.com/svgjs" version="1.1" width="512" height="512" x="0" y="0" viewBox="0 0 512.001 512.001" style="enable-background:new 0 0 512 512" xml:space="preserve" class=""><g>
<g xmlns="http://www.w3.org/2000/svg">
	<g>
		<g>
			<path d="M93.325,192.224c-5.509-0.401-10.3,3.735-10.703,9.243c-0.004,0.064-0.009,0.141-0.013,0.205     c-0.364,5.511,3.809,10.272,9.32,10.636c0.225,0.015,0.447,0.022,0.668,0.022c5.223,0,9.62-4.056,9.969-9.343     c0.002-0.028,0.006-0.101,0.009-0.151C102.927,197.366,98.804,192.624,93.325,192.224z" fill="#ffffff" data-original="#000000" style="" class=""/>
			<path d="M429.312,275.596c-5.479-0.22-10.133,3.977-10.43,9.446c-0.004,0.06-0.009,0.149-0.011,0.195     c-0.266,5.517,3.99,10.204,9.507,10.47c0.164,0.008,0.327,0.012,0.489,0.012c5.275,0,9.678-4.125,9.977-9.438     c0.004-0.073,0.011-0.191,0.014-0.251C439.103,280.513,434.829,275.842,429.312,275.596z" fill="#ffffff" data-original="#000000" style="" class=""/>
			<path d="M461.826,129.117c-0.078-0.883-0.275-1.73-0.567-2.533c-6.28-27.177-14.541-53.77-24.688-79.475     c-0.156-0.517-0.359-1.012-0.593-1.49C430.557,32,424.614,18.626,418.136,5.558C416.448,2.154,412.977,0,409.177,0H102.828     c-3.8,0-7.271,2.154-8.959,5.558C87.391,18.623,81.45,31.994,76.028,45.612c-0.236,0.482-0.441,0.981-0.598,1.503     c-10.145,25.703-18.405,52.293-24.686,79.467c-0.293,0.804-0.491,1.652-0.568,2.538c-9.357,41.348-14.175,84.006-14.175,126.879     c0,42.877,4.819,85.539,14.178,126.891c0.078,0.875,0.273,1.714,0.561,2.509c6.279,27.172,14.538,53.761,24.681,79.463     c0.162,0.541,0.373,1.059,0.619,1.557c5.418,13.606,11.355,26.966,17.828,40.021c1.688,3.404,5.159,5.558,8.959,5.558h67.674     c0.02,0,0.038,0.003,0.058,0.003c0.014,0,0.027-0.003,0.041-0.003h170.804c0.014,0,0.027,0.003,0.041,0.003     c0.02,0,0.038-0.003,0.058-0.003h67.675c3.8,0,7.271-2.154,8.959-5.558c6.475-13.061,12.415-26.428,17.835-40.041     c0.239-0.487,0.447-0.994,0.605-1.524c10.143-25.699,18.402-52.286,24.681-79.456c0.294-0.806,0.492-1.657,0.569-2.545     c9.357-41.347,14.174-84.003,14.174-126.876C476.001,213.124,471.183,170.465,461.826,129.117z M402.932,20     c3.169,6.592,6.198,13.262,9.093,20h-53.61c-1.392-6.685-2.851-13.363-4.367-20H402.932z M333.523,20     c1.545,6.625,3.033,13.304,4.455,20h-71.975l-0.001-20H333.523z M178.48,20h67.522l0.001,20h-71.978     C175.447,33.306,176.935,26.628,178.48,20z M109.073,20h48.882c-1.517,6.639-2.976,13.316-4.367,20H99.98     C102.875,33.262,105.904,26.592,109.073,20z M91.876,60L91.876,60h328.251c7.457,19.532,13.791,39.579,18.961,60.001H72.915     C78.085,99.579,84.42,79.532,91.876,60z M360.621,255.999c0,38.635-2.178,77.612-6.471,115.999h-88.148L266.003,140h88.147     C358.443,178.394,360.621,217.372,360.621,255.999z M246.003,140l-0.001,231.998h-88.149c-4.292-38.382-6.47-77.359-6.47-115.999     c0-38.632,2.178-77.61,6.47-115.999H246.003z M56.001,256.001c0-39.159,4.16-78.123,12.253-115.999h22.734     c-0.042,0.157-0.086,0.32-0.127,0.473c-2.853,10.641-3.92,14.623-5.91,32.779c-0.602,5.49,3.361,10.428,8.851,11.03     c0.371,0.04,0.738,0.061,1.103,0.061c5.034,0,9.366-3.792,9.928-8.912c1.823-16.634,2.64-19.682,5.347-29.778     c0.445-1.66,0.944-3.521,1.504-5.653h26.052c-4.212,38.407-6.353,77.372-6.353,115.999c0,38.634,2.14,77.598,6.352,115.999     H68.255C60.16,334.124,56.001,295.16,56.001,256.001z M109.073,492c-3.169-6.592-6.198-13.262-9.093-20.001h53.608     c1.392,6.686,2.851,13.364,4.367,20.001H109.073z M246.005,492H178.48c-1.545-6.626-3.033-13.304-4.455-20.001h71.979V492z      M333.523,492h-67.518l-0.001-20.001h71.975C336.557,478.695,335.068,485.374,333.523,492z M402.932,492h-48.883     c1.516-6.637,2.975-13.315,4.367-20.001h53.609C409.13,478.738,406.101,485.408,402.932,492z M420.128,451.999     c-0.019,0,0,0-0.019,0H91.876c-7.457-19.532-13.792-39.579-18.961-60.001h0h366.173     C433.92,412.42,427.585,432.467,420.128,451.999z M443.749,371.998h-16.808c4.232-18.871,7.452-38.099,9.562-57.336     c0.602-5.49-3.36-10.428-8.851-11.03c-5.49-0.604-10.428,3.36-11.03,8.85c-2.192,19.99-5.616,39.973-10.185,59.516h-32.169     c4.213-38.405,6.353-77.369,6.353-115.999c0-38.622-2.14-77.587-6.353-115.999h69.481c8.093,37.876,12.253,76.84,12.253,115.999     S451.842,334.123,443.749,371.998z" fill="#ffffff" data-original="#000000" style="" class=""/>
			<path d="M176.549,436.999c7.502,0,13.621-6.738,13.621-15c0-8.263-6.119-15-13.621-15c-7.502,0-13.621,6.738-13.621,15     C162.928,430.261,169.047,436.999,176.549,436.999z" fill="#ffffff" data-original="#000000" style="" class=""/>
			<path d="M335.455,436.999c7.502,0,13.621-6.738,13.621-15c0-8.263-6.119-15-13.621-15c-7.502,0-13.62,6.738-13.62,15     C321.835,430.261,327.953,436.999,335.455,436.999z" fill="#ffffff" data-original="#000000" style="" class=""/>
			<path d="M176.549,75c-7.502,0-13.621,6.739-13.621,15.001c0,8.261,6.119,15,13.621,15c7.502,0,13.621-6.739,13.621-15     C190.17,81.739,184.051,75,176.549,75z" fill="#ffffff" data-original="#000000" style="" class=""/>
			<path d="M335.455,75c-7.502,0-13.62,6.739-13.62,15.001c0,8.261,6.118,15,13.62,15s13.621-6.739,13.621-15     C349.076,81.739,342.957,75,335.455,75z" fill="#ffffff" data-original="#000000" style="" class=""/>
		</g>
	</g>
</g>
<g xmlns="http://www.w3.org/2000/svg">
</g>
<g xmlns="http://www.w3.org/2000/svg">
</g>
<g xmlns="http://www.w3.org/2000/svg">
</g>
<g xmlns="http://www.w3.org/2000/svg">
</g>
<g xmlns="http://www.w3.org/2000/svg">
</g>
<g xmlns="http://www.w3.org/2000/svg">
</g>
<g xmlns="http://www.w3.org/2000/svg">
</g>
<g xmlns="http://www.w3.org/2000/svg">
</g>
<g xmlns="http://www.w3.org/2000/svg">
</g>
<g xmlns="http://www.w3.org/2000/svg">
</g>
<g xmlns="http://www.w3.org/2000/svg">
</g>
<g xmlns="http://www.w3.org/2000/svg">
</g>
<g xmlns="http://www.w3.org/2000/svg">
</g>
<g xmlns="http://www.w3.org/2000/svg">
</g>
<g xmlns="http://www.w3.org/2000/svg">
</g>
</g></svg>
