<svg id="Layer_1" enable-background="new 0 0 511.975 511.975" height="512" viewBox="0 0 511.975 511.975" width="512" xmlns="http://www.w3.org/2000/svg"><g><path d="m413.986 127.975h-35c-1.657 0-3 1.343-3 3v50c0 1.657 1.343 3 3 3h25c6.627 0 12 5.373 12 12v184c0 6.627-5.373 12-12 12h-25c-1.657 0-3 1.343-3 3v50c0 1.657 1.343 3 3 3h35c32.033 0 58-25.967 58-58v-204c0-32.033-25.967-58-58-58z"/><path d="m295.986 21.383c-20.325-9.654-44.708-6.253-61.666 9.172-13.379-7.167-28.913-8.388-42.768-4.123-21.199-34.097-70.486-35.527-93.541-2.418-32.151-1.242-59.257 25.169-57.979 58.167 1.375 35.972 36.793 62.198 72.313 51.36 3.822-1.156 7.642 1.78 7.642 5.764v32.67c0 16.358 14.008 29.335 30.494 27.894 14.302-1.248 25.506-13.699 25.506-28.346v-55.548c0-6.57 5.282-12 12-12 6.627 0 12 5.373 12 12v24c0 7.833 3.312 15.36 9.085 20.651 18.074 16.564 46.915 3.415 46.915-21.104 0-12.252-.253-12.028.753-12.817 1.814-1.426 3.748 1.27 15.247 1.27 8.317 0 16.527-1.859 23.998-5.407 8.141 3.871 17.105 5.709 26.178 5.361 48.042-1.834 71.639-60.01 38.178-94.782-17.567-18.252-43.684-21.582-64.355-11.764z"/><path d="m287.986 239.975c-4.411 0-8 3.589-8 8v176c0 4.411 3.589 8 8 8s8-3.589 8-8v-176c0-4.411-3.589-8-8-8z"/><path d="m207.986 239.975c-4.411 0-8 3.589-8 8v176c0 4.411 3.589 8 8 8s8-3.589 8-8v-176c0-4.411-3.589-8-8-8z"/><path d="m127.986 239.975c-4.411 0-8 3.589-8 8v176c0 4.411 3.589 8 8 8s8-3.589 8-8v-176c0-4.411-3.589-8-8-8z"/><path d="m295.033 140.183c-6.618 2.23-13.551 3.509-20.757 3.75-1.428.048-2.608 1.116-2.832 2.527-3.326 20.962-21.425 37.515-43.398 37.515-12.636 0-24.152-5.304-32.221-13.964-1.375-1.475-3.839-.51-3.839 1.506v.007c0 22.87-17.62 42.32-40.12 44.28-26.027 2.269-47.88-18.26-47.88-43.83v-17.174c0-1.734-1.466-3.1-3.197-2.986-14.283.939-28.177-2.328-40.315-9.278-2-1.145-4.488.291-4.488 2.596v328.842c0 20.987 17.013 38 38 38h228c20.987 0 38-17.013 38-38v-336.844c0-2.303-2.486-3.741-4.485-2.598-17.78 10.171-38.965 12.239-58.56 5.65-.62-.207-1.288-.208-1.908.001zm-143.047 283.792c0 13.233-10.767 24-24 24s-24-10.767-24-24v-176c0-13.233 10.767-24 24-24s24 10.767 24 24zm80 0c0 13.233-10.767 24-24 24s-24-10.767-24-24v-176c0-13.233 10.767-24 24-24s24 10.767 24 24zm80 0c0 13.233-10.767 24-24 24s-24-10.767-24-24v-176c0-13.233 10.767-24 24-24s24 10.767 24 24z"/></g></svg>