<?xml version="1.0"?>
<svg xmlns="http://www.w3.org/2000/svg" xmlns:xlink="http://www.w3.org/1999/xlink" xmlns:svgjs="http://svgjs.com/svgjs" version="1.1" width="512" height="512" x="0" y="0" viewBox="0 0 512 512" style="enable-background:new 0 0 512 512" xml:space="preserve" class=""><g><g xmlns="http://www.w3.org/2000/svg"><path d="m240.043 425.595c14.429 0 26.167-11.738 26.167-26.167s-11.738-26.167-26.167-26.167c-14.428 0-26.166 11.738-26.166 26.167s11.739 26.167 26.166 26.167zm0-37.333c6.157 0 11.167 5.009 11.167 11.167s-5.01 11.167-11.167 11.167-11.166-5.009-11.166-11.167 5.009-11.167 11.166-11.167z" fill="#ffffff" data-original="#000000" style="" class=""/><path d="m300.21 323.095c0-18.656-15.178-33.833-33.833-33.833-18.656 0-33.834 15.177-33.834 33.833s15.178 33.833 33.834 33.833 33.833-15.178 33.833-33.833zm-52.667 0c0-10.385 8.449-18.833 18.834-18.833s18.833 8.448 18.833 18.833-8.448 18.833-18.833 18.833-18.834-8.449-18.834-18.833z" fill="#ffffff" data-original="#000000" style="" class=""/><path d="m228.71 270.928h5.333c4.143 0 7.5-3.358 7.5-7.5s-3.357-7.5-7.5-7.5h-5.333c-4.143 0-7.5 3.358-7.5 7.5s3.358 7.5 7.5 7.5z" fill="#ffffff" data-original="#000000" style="" class=""/><path d="m168.286 320.547v169.545c0 12.08 9.828 21.907 21.908 21.907h131.608c12.08 0 21.907-9.828 21.907-21.907 0-9.688 0-82.494 0-91.831 0-4.142-3.357-7.5-7.5-7.5s-7.5 3.358-7.5 7.5v55.334c-3.641 3.998-8.833 6.332-14.283 6.332h-40.929c-4.143 0-7.5 3.358-7.5 7.5s3.357 7.5 7.5 7.5h40.929c4.987 0 9.854-1.098 14.283-3.13v18.295c0 3.809-3.099 6.907-6.907 6.907h-131.607c-3.81 0-6.908-3.099-6.908-6.907v-18.295c4.429 2.033 9.296 3.13 14.283 3.13h40.929c4.143 0 7.5-3.358 7.5-7.5s-3.357-7.5-7.5-7.5h-40.929c-5.451 0-10.643-2.334-14.283-6.332v-133.048c0-25.851-6.612-51.472-19.122-74.092-11.285-20.406-17.25-43.517-17.25-66.833v-29.193h34.925v24.276c0 13.244 10.733 24.968 24.67 24.81.055-.001.11.002.165.001h.001c13.187-.246 23.911-11.18 23.911-24.369v-7.379c0-5.334 4.405-9.943 9.556-9.814 5.068.095 9.191 4.299 9.191 9.372v51.979c0 13.529 11.081 25.078 24.837 24.812 13.184-.247 23.91-11.179 23.91-24.369v-69.319h67.002v29.193c0 23.318-5.965 46.429-17.249 66.833-3.91 7.069-7.243 14.431-9.979 22.002-6.019 16.655-9.144 34.319-9.144 52.09v42.714c0 4.142 3.357 7.5 7.5 7.5s7.5-3.358 7.5-7.5v-42.714c0-23.317 5.965-46.428 17.25-66.833 9.382-16.966 15.447-35.619 17.894-54.791.815-6.391 1.229-12.839 1.229-19.302 0-8.916 0-71.419 0-79.941 6.425-9.07 8.813-20.168 6.708-31.615-3.812-20.746-23.863-37.966-44.695-38.388-11.021-.208-21.779 3.487-30.3 10.452-8.417-4.768-18.272-6.417-27.813-4.653-9.928-21.558-31.64-35.476-55.367-35.476-23.737 0-45.438 13.915-55.366 35.475-4.102-.758-8.303-.889-12.495-.391-19.714 2.345-34.94 18.448-36.204 38.289-.608 9.547 1.988 18.707 7.363 26.345v79.903c0 25.834 6.604 51.456 19.123 74.093 11.284 20.404 17.248 43.515 17.248 66.833zm13.553-185.119h-34.925v-22.619c9.709 4.983 17.423 4.528 25.814 4.528 5.023 0 9.11 4.086 9.11 9.109v8.982zm183.243 0h-67.002v-8.981c0-5.023 4.087-9.109 9.11-9.109h38.689c6.71 0 13.448-1.665 19.202-4.62v22.71zm-219.851-42.951c-4.112-5.116-6.136-11.482-5.711-18.15.953-14.936 15.09-27.193 31.24-24.058 6.62 1.286 13.211-2.138 16.028-8.332 7.447-16.363 23.865-26.937 41.829-26.937 17.931 0 34.337 10.547 41.796 26.871 2.84 6.211 9.471 9.66 16.139 8.384 6.188-1.182 12.587-.111 18.021 3.022 5.24 3.02 11.899 2.456 16.561-1.408 5.786-4.793 13.128-7.361 20.657-7.196 13.608.275 27.742 12.473 30.248 26.103 3.22 17.516-10.105 31.561-26.158 31.561h-38.689c-13.295 0-24.11 10.815-24.11 24.11v93.3c0 5.073-4.123 9.277-9.191 9.372-5.224.103-9.556-4.53-9.556-9.814v-51.979c0-13.191-10.727-24.123-23.91-24.369-13.804-.267-24.837 11.318-24.837 24.811v7.379c0 5.073-4.123 9.277-9.192 9.372-5.143.118-9.555-4.464-9.555-9.814 0-4.637 0-43.275 0-48.258 0-13.294-10.815-24.11-24.11-24.11-7.511 0-18.422 1.236-27.5-9.86z" fill="#ffffff" data-original="#000000" style="" class=""/></g></g></svg>
